<svg width="35" height="36" viewBox="0 0 35 36" fill="none" xmlns="http://www.w3.org/2000/svg">
<path d="M4.69441 6.42149C4.59272 6.31689 4.51205 6.19271 4.45702 6.05605C4.40198 5.91939 4.37366 5.77291 4.37366 5.62499C4.37366 5.47706 4.40198 5.33059 4.45702 5.19392C4.51205 5.05726 4.59272 4.93308 4.69441 4.82849C4.79611 4.72389 4.91683 4.64092 5.0497 4.58431C5.18257 4.5277 5.32497 4.49857 5.46879 4.49857C5.6126 4.49857 5.75501 4.5277 5.88788 4.58431C6.02074 4.64092 6.14147 4.72389 6.24316 4.82849L17.5 16.4092L28.7569 4.82849C28.8586 4.72389 28.9793 4.64092 29.1122 4.58431C29.2451 4.5277 29.3875 4.49857 29.5313 4.49857C29.6751 4.49857 29.8175 4.5277 29.9504 4.58431C30.0832 4.64092 30.204 4.72389 30.3057 4.82849C30.4074 4.93308 30.488 5.05726 30.5431 5.19392C30.5981 5.33059 30.6264 5.47706 30.6264 5.62499C30.6264 5.77291 30.5981 5.91939 30.5431 6.05605C30.488 6.19271 30.4074 6.31689 30.3057 6.42149L19.0466 18L30.3057 29.5785C30.4074 29.6831 30.488 29.8073 30.5431 29.9439C30.5981 30.0806 30.6264 30.2271 30.6264 30.375C30.6264 30.5229 30.5981 30.6694 30.5431 30.806C30.488 30.9427 30.4074 31.0669 30.3057 31.1715C30.204 31.2761 30.0832 31.3591 29.9504 31.4157C29.8175 31.4723 29.6751 31.5014 29.5313 31.5014C29.3875 31.5014 29.2451 31.4723 29.1122 31.4157C28.9793 31.3591 28.8586 31.2761 28.7569 31.1715L17.5 19.5907L6.24316 31.1715C6.14147 31.2761 6.02074 31.3591 5.88788 31.4157C5.75501 31.4723 5.6126 31.5014 5.46879 31.5014C5.32497 31.5014 5.18257 31.4723 5.0497 31.4157C4.91683 31.3591 4.79611 31.2761 4.69441 31.1715C4.59272 31.0669 4.51205 30.9427 4.45702 30.806C4.40198 30.6694 4.37366 30.5229 4.37366 30.375C4.37366 30.2271 4.40198 30.0806 4.45702 29.9439C4.51205 29.8073 4.59272 29.6831 4.69441 29.5785L15.9535 18L4.69441 6.42149Z" fill="white"/>
</svg>
